<svg width="64" height="64" viewBox="0 0 64 64" fill="none" xmlns="http://www.w3.org/2000/svg">
<path d="M42.6667 51.5555L51.5556 42.6667L10.6667 1.77777H1.77783V10.6667L42.6667 51.5555Z" fill="#CCD6DD"/>
<path d="M1.77783 1.77777V10.6667L42.6667 51.5555L47.1112 47.1111L1.77783 1.77777Z" fill="#9AAAB4"/>
<path d="M59.4205 58.3253C59.9254 57.8204 60.2347 57.2125 60.3645 56.6045L51.0453 45.5911L49.7991 44.3431C48.7965 43.3405 47.008 43.5022 45.8027 44.7076L44.7111 45.7956C43.5076 46.9991 43.3458 48.7876 44.3485 49.7902L45.6658 51.1076L56.5991 60.3609C57.2125 60.2329 57.8222 59.9218 58.3307 59.4151L59.4205 58.3253Z" fill="#D99E82"/>
<path d="M59.4204 58.3253C59.9253 57.8204 60.2346 57.2124 60.3644 56.6044L57.9786 53.7849L56.6684 60.3342C57.2569 60.1973 57.8435 59.9022 58.3306 59.4133L59.4204 58.3253ZM53.536 48.5369L51.9573 56.432L54.1973 58.3271L55.6551 51.0382L53.536 48.5369ZM51.0453 45.5911L49.7991 44.3431C49.6293 44.1792 49.4334 44.0447 49.2195 43.9449L47.4809 52.6418L49.7209 54.5369L51.4222 46.0338L51.0453 45.5911ZM46.7769 44.0124C46.4154 44.1886 46.0861 44.4241 45.8026 44.7093L44.7111 45.7956C44.2825 46.2191 43.9697 46.7455 43.8026 47.3244C43.5502 48.2311 43.7209 49.1644 44.3484 49.7902L45.408 50.8498L46.7769 44.0124C46.7769 44.0107 46.7769 44.0107 46.7769 44.0124Z" fill="#BF6952"/>
<path d="M59.1111 64C61.8111 64 63.9999 61.8112 63.9999 59.1111C63.9999 56.4111 61.8111 54.2222 59.1111 54.2222C56.411 54.2222 54.2222 56.4111 54.2222 59.1111C54.2222 61.8112 56.411 64 59.1111 64Z" fill="#8A4633"/>
<path d="M52.6684 39.6871C52.8393 39.8577 52.9748 40.0602 53.0672 40.2832C53.1597 40.5062 53.2073 40.7453 53.2073 40.9867C53.2073 41.2281 53.1597 41.4671 53.0672 41.6901C52.9748 41.9131 52.8393 42.1156 52.6684 42.2862L41.8382 53.1164C41.6675 53.2871 41.4649 53.4225 41.242 53.5148C41.019 53.6072 40.78 53.6547 40.5387 53.6547C40.2973 53.6547 40.0583 53.6072 39.8353 53.5148C39.6124 53.4225 39.4098 53.2871 39.2391 53.1164C39.0684 52.9458 38.9331 52.7432 38.8407 52.5202C38.7483 52.2972 38.7008 52.0582 38.7008 51.8169C38.7008 51.5755 38.7483 51.3365 38.8407 51.1136C38.9331 50.8906 39.0684 50.688 39.2391 50.5173L50.0693 39.6871C50.2399 39.5163 50.4425 39.3808 50.6654 39.2883C50.8884 39.1958 51.1275 39.1482 51.3689 39.1482C51.6103 39.1482 51.8493 39.1958 52.0723 39.2883C52.2953 39.3808 52.4979 39.5163 52.6684 39.6871Z" fill="#FFAC33"/>
<path d="M39.2392 56.2258C40.9574 56.2258 42.3503 54.8329 42.3503 53.1147C42.3503 51.3965 40.9574 50.0036 39.2392 50.0036C37.5209 50.0036 36.1281 51.3965 36.1281 53.1147C36.1281 54.8329 37.5209 56.2258 39.2392 56.2258Z" fill="#FFAC33"/>
<path d="M52.6685 42.7964C54.3867 42.7964 55.7796 41.4035 55.7796 39.6853C55.7796 37.9671 54.3867 36.5742 52.6685 36.5742C50.9503 36.5742 49.5574 37.9671 49.5574 39.6853C49.5574 41.4035 50.9503 42.7964 52.6685 42.7964Z" fill="#FFAC33"/>
<path d="M39.2391 54.8925C40.2209 54.8925 41.0169 54.0965 41.0169 53.1147C41.0169 52.1329 40.2209 51.3369 39.2391 51.3369C38.2572 51.3369 37.4613 52.1329 37.4613 53.1147C37.4613 54.0965 38.2572 54.8925 39.2391 54.8925Z" fill="#FFCC4D"/>
<path d="M52.6684 41.4631C53.6502 41.4631 54.4462 40.6672 54.4462 39.6853C54.4462 38.7035 53.6502 37.9076 52.6684 37.9076C51.6866 37.9076 50.8906 38.7035 50.8906 39.6853C50.8906 40.6672 51.6866 41.4631 52.6684 41.4631Z" fill="#FFCC4D"/>
<path d="M60.272 52.1635C60.3979 52.2894 60.4977 52.4387 60.5659 52.6031C60.634 52.7676 60.6691 52.9438 60.6691 53.1218C60.6691 53.2997 60.634 53.476 60.5659 53.6404C60.4977 53.8048 60.3979 53.9542 60.272 54.08L54.0924 60.2578C53.9666 60.3836 53.8172 60.4834 53.6528 60.5515C53.4884 60.6196 53.3121 60.6547 53.1342 60.6547C52.9562 60.6547 52.78 60.6196 52.6156 60.5515C52.4512 60.4834 52.3018 60.3836 52.176 60.2578C52.0501 60.1319 51.9503 59.9825 51.8822 59.8181C51.8141 59.6537 51.7791 59.4775 51.7791 59.2995C51.7791 59.1216 51.8141 58.9454 51.8822 58.781C51.9503 58.6166 52.0501 58.4672 52.176 58.3413L58.3555 52.1635C58.4813 52.0377 58.6307 51.9378 58.7951 51.8697C58.9595 51.8015 59.1358 51.7664 59.3137 51.7664C59.4917 51.7664 59.6679 51.8015 59.8324 51.8697C59.9968 51.9378 60.1462 52.0377 60.272 52.1635Z" fill="#FFAC33"/>
<path d="M21.3333 51.5555L12.4445 42.6667L53.3333 1.77777H62.2222V10.6667L21.3333 51.5555Z" fill="#CCD6DD"/>
<path d="M62.2222 1.77777V10.6667L21.3334 51.5555L16.8889 47.1111L62.2222 1.77777Z" fill="#9AAAB4"/>
<path d="M4.57962 58.3253C4.10541 57.8549 3.77755 57.2572 3.63562 56.6045L12.9547 45.5911L14.201 44.3431C15.2036 43.3405 16.9921 43.5022 18.1974 44.7076L19.2872 45.7956C20.4907 46.9991 20.6525 48.7876 19.6498 49.7902L18.3325 51.1076L7.39918 60.3609C6.74242 60.2204 6.14077 59.8918 5.66762 59.4151L4.57962 58.3253Z" fill="#D99E82"/>
<path d="M4.57962 58.3253C4.10541 57.8549 3.77755 57.2572 3.63562 56.6044L6.0214 53.7849L7.33162 60.3342C6.70197 60.1897 6.12584 59.8705 5.6694 59.4133L4.57962 58.3253ZM10.4641 48.5369L12.0427 56.432L9.80273 58.3271L8.34495 51.0382L10.4641 48.5369ZM12.9547 45.5911L14.201 44.3431C14.3708 44.1792 14.5666 44.0447 14.7805 43.9449L16.5192 52.6418L14.2792 54.5369L12.5778 46.0338L12.9547 45.5911ZM17.2232 44.0124C17.5698 44.1813 17.9023 44.4124 18.1974 44.7093L19.2872 45.7973C19.7387 46.2489 20.0427 46.7822 20.1956 47.3262C20.4481 48.2329 20.2774 49.1662 19.6498 49.792L18.5903 50.8516L17.2232 44.0124C17.2232 44.0107 17.2232 44.0107 17.2232 44.0124Z" fill="#BF6952"/>
<path d="M4.88889 64C7.58895 64 9.77778 61.8112 9.77778 59.1111C9.77778 56.4111 7.58895 54.2222 4.88889 54.2222C2.18883 54.2222 0 56.4111 0 59.1111C0 61.8112 2.18883 64 4.88889 64Z" fill="#8A4633"/>
<path d="M11.3316 39.6871C11.1608 39.8577 11.0252 40.0602 10.9328 40.2832C10.8403 40.5062 10.7927 40.7453 10.7927 40.9867C10.7927 41.2281 10.8403 41.4671 10.9328 41.6901C11.0252 41.9131 11.1608 42.1156 11.3316 42.2862L22.1618 53.1164C22.3325 53.2871 22.5351 53.4225 22.7581 53.5148C22.981 53.6072 23.22 53.6547 23.4614 53.6547C23.7027 53.6547 23.9417 53.6072 24.1647 53.5148C24.3877 53.4225 24.5903 53.2871 24.7609 53.1164C24.9316 52.9458 25.067 52.7432 25.1593 52.5202C25.2517 52.2972 25.2992 52.0582 25.2992 51.8169C25.2992 51.5755 25.2517 51.3365 25.1593 51.1136C25.067 50.8906 24.9316 50.688 24.7609 50.5173L13.9307 39.6871C13.7601 39.5163 13.5576 39.3808 13.3346 39.2883C13.1116 39.1958 12.8726 39.1482 12.6312 39.1482C12.3898 39.1482 12.1507 39.1958 11.9277 39.2883C11.7047 39.3808 11.5022 39.5163 11.3316 39.6871Z" fill="#FFAC33"/>
<path d="M24.7609 56.2258C26.4791 56.2258 27.872 54.8329 27.872 53.1147C27.872 51.3965 26.4791 50.0036 24.7609 50.0036C23.0427 50.0036 21.6498 51.3965 21.6498 53.1147C21.6498 54.8329 23.0427 56.2258 24.7609 56.2258Z" fill="#FFAC33"/>
<path d="M11.3316 42.7964C13.0498 42.7964 14.4427 41.4035 14.4427 39.6853C14.4427 37.9671 13.0498 36.5742 11.3316 36.5742C9.61335 36.5742 8.22046 37.9671 8.22046 39.6853C8.22046 41.4035 9.61335 42.7964 11.3316 42.7964Z" fill="#FFAC33"/>
<path d="M24.7609 54.8925C25.7428 54.8925 26.5387 54.0965 26.5387 53.1147C26.5387 52.1329 25.7428 51.3369 24.7609 51.3369C23.7791 51.3369 22.9832 52.1329 22.9832 53.1147C22.9832 54.0965 23.7791 54.8925 24.7609 54.8925Z" fill="#FFCC4D"/>
<path d="M11.3316 41.4631C12.3135 41.4631 13.1094 40.6672 13.1094 39.6853C13.1094 38.7035 12.3135 37.9076 11.3316 37.9076C10.3498 37.9076 9.55383 38.7035 9.55383 39.6853C9.55383 40.6672 10.3498 41.4631 11.3316 41.4631Z" fill="#FFCC4D"/>
<path d="M3.72803 52.1635C3.60214 52.2894 3.50228 52.4387 3.43414 52.6031C3.366 52.7676 3.33093 52.9438 3.33093 53.1218C3.33093 53.2997 3.366 53.476 3.43414 53.6404C3.50228 53.8048 3.60214 53.9542 3.72803 54.08L9.90759 60.2578C10.0334 60.3836 10.1828 60.4834 10.3472 60.5515C10.5116 60.6196 10.6879 60.6547 10.8658 60.6547C11.0438 60.6547 11.22 60.6196 11.3844 60.5515C11.5488 60.4834 11.6982 60.3836 11.824 60.2578C11.9499 60.1319 12.0497 59.9825 12.1178 59.8181C12.1859 59.6537 12.2209 59.4775 12.2209 59.2995C12.2209 59.1216 12.1859 58.9454 12.1178 58.781C12.0497 58.6166 11.9499 58.4672 11.824 58.3413L5.64448 52.1635C5.51867 52.0377 5.36929 51.9378 5.20488 51.8697C5.04046 51.8015 4.86423 51.7664 4.68626 51.7664C4.50828 51.7664 4.33205 51.8015 4.16763 51.8697C4.00322 51.9378 3.85384 52.0377 3.72803 52.1635Z" fill="#FFAC33"/>
</svg>
