<svg width="64" height="64" viewBox="0 0 64 64" fill="none" xmlns="http://www.w3.org/2000/svg">
<path d="M53.3334 16H42.6667V10.6667C42.6667 7.73334 40.2667 5.33334 37.3334 5.33334H26.6667C23.7334 5.33334 21.3334 7.73334 21.3334 10.6667V16H10.6667C7.73337 16 5.33337 18.4 5.33337 21.3333V53.3333C5.33337 56.2667 7.73337 58.6667 10.6667 58.6667H53.3334C56.2667 58.6667 58.6667 56.2667 58.6667 53.3333V21.3333C58.6667 18.4 56.2667 16 53.3334 16ZM26.6667 10.6667H37.3334V16H26.6667V10.6667ZM40 40H34.6667V45.3333C34.6667 46.8 33.4667 48 32 48C30.5334 48 29.3334 46.8 29.3334 45.3333V40H24C22.5334 40 21.3334 38.8 21.3334 37.3333C21.3334 35.8667 22.5334 34.6667 24 34.6667H29.3334V29.3333C29.3334 27.8667 30.5334 26.6667 32 26.6667C33.4667 26.6667 34.6667 27.8667 34.6667 29.3333V34.6667H40C41.4667 34.6667 42.6667 35.8667 42.6667 37.3333C42.6667 38.8 41.4667 40 40 40Z" fill="#BBD147"/>
</svg>
