<svg width="745" height="701" viewBox="0 0 745 701" fill="none" xmlns="http://www.w3.org/2000/svg">
<path d="M744.068 592.702H1" stroke="#263238" stroke-linecap="round" stroke-linejoin="round"/>
<g opacity="0.3">
<path opacity="0.3" d="M705.538 77.3608H582.171V240.944H705.538V77.3608Z" fill="white" stroke="black" stroke-linecap="round" stroke-linejoin="round"/>
<path opacity="0.3" d="M698.455 86.7651H589.271V231.555H698.455V86.7651Z" fill="white" stroke="black" stroke-linecap="round" stroke-linejoin="round"/>
<path opacity="0.3" d="M668.387 126.609H619.309V191.696H668.387V126.609Z" fill="white" stroke="black" stroke-linecap="round" stroke-linejoin="round"/>
</g>
<g opacity="0.3">
<path opacity="0.3" d="M85.1271 87.6155H33.497V156.074H85.1271V87.6155Z" fill="white" stroke="black" stroke-linecap="round" stroke-linejoin="round"/>
<path opacity="0.3" d="M82.1572 91.5441H36.4667V152.13H82.1572V91.5441Z" fill="white" stroke="black" stroke-linecap="round" stroke-linejoin="round"/>
<path opacity="0.3" d="M69.5826 108.233H49.042V135.472H69.5826V108.233Z" fill="white" stroke="black" stroke-linecap="round" stroke-linejoin="round"/>
<path opacity="0.3" d="M162.68 167.505H111.05V235.963H162.68V167.505Z" fill="white" stroke="black" stroke-linecap="round" stroke-linejoin="round"/>
<path opacity="0.3" d="M159.695 171.449H114.005V232.035H159.695V171.449Z" fill="white" stroke="black" stroke-linecap="round" stroke-linejoin="round"/>
<path opacity="0.3" d="M147.12 188.123H126.579V215.361H147.12V188.123Z" fill="white" stroke="black" stroke-linecap="round" stroke-linejoin="round"/>
<path opacity="0.3" d="M32.1669 175.919V227.549H100.625V175.919H32.1669Z" fill="white" stroke="black" stroke-linecap="round" stroke-linejoin="round"/>
<path opacity="0.3" d="M36.1106 178.888V224.579H96.6964V178.888H36.1106Z" fill="white" stroke="black" stroke-linecap="round" stroke-linejoin="round"/>
<path opacity="0.3" d="M52.7844 191.464V212.004H80.0225V191.464H52.7844Z" fill="white" stroke="black" stroke-linecap="round" stroke-linejoin="round"/>
<path opacity="0.3" d="M166.222 59.5734H91.0661V159.245H166.222V59.5734Z" fill="white" stroke="black" stroke-linecap="round" stroke-linejoin="round"/>
<path opacity="0.3" d="M161.923 65.3118H95.3978V153.522H161.923V65.3118Z" fill="white" stroke="black" stroke-linecap="round" stroke-linejoin="round"/>
<path opacity="0.3" d="M143.594 89.58H113.695V129.238H143.594V89.58Z" fill="white" stroke="black" stroke-linecap="round" stroke-linejoin="round"/>
</g>
<path d="M208.82 348.271H201.906V365.858H208.82V348.271Z" fill="#6E6E6E" stroke="#263238" stroke-linecap="round" stroke-linejoin="round"/>
<path d="M539.234 348.271H532.32V365.858H539.234V348.271Z" fill="#6E6E6E" stroke="#263238" stroke-linecap="round" stroke-linejoin="round"/>
<path d="M548.731 92.6271H193.677V350.128H548.731V92.6271Z" fill="#6E6E6E" stroke="#263238" stroke-linecap="round" stroke-linejoin="round"/>
<path d="M539.234 99.5253H203.174V343.244H539.234V99.5253Z" fill="#263238" stroke="#263238" stroke-linecap="round" stroke-linejoin="round"/>
<path d="M468.532 305.118L489.66 330.469L489.985 326.247L494.208 325.272L494.533 322.674L498.755 321.359L479.576 295.033L468.532 305.118Z" fill="#E0E0E0" stroke="#263238" stroke-linecap="round" stroke-linejoin="round"/>
<path d="M479.576 295.033L468.532 305.118L479.545 318.343L481.2 307.717C482.818 306.407 484.367 305.013 485.84 303.541L479.576 295.033Z" fill="#263238" stroke="#263238" stroke-linecap="round" stroke-linejoin="round"/>
<path d="M495.183 273.58L517.935 304.515L514.037 307.438C514.037 307.438 509.475 310.362 508.175 311.011C506.69 311.613 505.172 312.129 503.628 312.558L502.004 316.208H496.482L478.602 288.212C478.602 288.212 478.602 285.289 482.175 281.391C485.748 277.493 495.183 273.58 495.183 273.58Z" fill="#E0E0E0" stroke="#263238" stroke-linecap="round" stroke-linejoin="round"/>
<path d="M495.183 273.58C495.183 273.58 485.748 277.493 482.175 281.391C478.602 285.289 478.602 288.212 478.602 288.212L487.341 301.87C488.257 300.844 489.104 299.759 489.877 298.622C492.971 293.982 498.091 297.075 498.091 297.075L500.132 288.862C500.423 288.02 500.906 287.258 501.542 286.635C502.178 286.013 502.951 285.546 503.798 285.274L495.183 273.58Z" fill="#263238" stroke="#263238" stroke-linecap="round" stroke-linejoin="round"/>
<path d="M470.156 212.159C470.156 212.159 479.901 224.533 483.799 232.963C487.697 241.392 502.653 258.314 506.226 261.237C509.592 263.648 513.188 265.72 516.961 267.424C516.961 267.424 503.953 261.237 499.73 268.399C495.508 275.56 494.858 285.954 494.858 285.954C494.858 285.954 487.047 282.706 485.423 288.228C483.799 293.75 481.2 307.732 481.2 307.732C481.2 307.732 471.456 303.509 468.532 305.134C465.609 306.758 457.798 311.321 457.798 311.321L454.875 315.218C454.875 315.218 453.9 301.901 454.875 294.739C455.849 287.578 457.148 272.637 460.721 256.721C464.294 240.805 470.156 212.159 470.156 212.159Z" fill="#BBD147" stroke="#263238" stroke-linecap="round" stroke-linejoin="round"/>
<path d="M471.781 252.792L491.888 275.544C491.888 275.544 480.179 251.492 479.205 246.28C478.23 241.067 476.606 239.134 478.555 234.587C479.487 232.682 480.546 230.842 481.726 229.08C478.339 223.352 474.599 217.84 470.528 212.577L469.955 213.072C468.919 218.129 463.923 242.46 460.675 256.643C458.11 269.076 456.18 281.631 454.89 294.26C456.437 290.702 458.649 285.675 460.025 283.293C462.299 279.396 473.033 291.739 473.033 291.739C473.033 291.739 464.588 275.823 465.3 270.935C466.011 266.047 471.781 252.792 471.781 252.792Z" fill="#263238" stroke="#263238" stroke-linecap="round" stroke-linejoin="round"/>
<path d="M362.24 182.26C362.24 182.26 335.946 181.286 322.273 175.424C308.6 169.562 280.016 151.388 262.46 166.979C244.905 182.57 222.493 282.984 224.766 297.631C227.04 312.279 242.972 318.435 255.701 322.008C268.431 325.581 261.888 323.307 261.888 323.307L260.187 342.502H456.174L457.798 311.305C457.798 311.305 459.422 282.705 462.685 272.946C465.949 263.186 473.729 238.175 473.404 224.192C473.08 210.21 473.404 191.371 462.02 184.874C450.636 178.378 442.856 177.404 432.447 178.378C422.037 179.353 387.916 178.053 383.044 178.378C378.172 178.703 362.24 182.26 362.24 182.26Z" fill="#BBD147" stroke="#263238" stroke-linecap="round" stroke-linejoin="round"/>
<path d="M473.405 224.177C473.327 220.712 473.281 216.923 473.095 213.103L471.456 208.911C471.456 208.911 464.959 227.766 463.722 229.018C462.485 230.271 462.036 210.86 462.036 210.86L457.164 218.98C457.164 218.98 458.138 204.688 457.813 200.125C457.489 195.563 449.693 190.706 448.394 190.056C447.095 189.407 395.604 182.322 386.308 191.68C377.012 201.038 363.896 205.338 360.632 205.601C357.337 206.14 354.081 206.899 350.887 207.875C350.533 211.762 350.425 215.667 350.563 219.568C350.887 224.115 350.887 237.773 350.887 237.773C348.601 234.624 346.642 231.25 345.041 227.704C341.143 219.97 334.956 208.849 334.956 207.875C333.785 215.085 333.026 222.356 332.682 229.653C332.809 232.823 332.481 235.995 331.708 239.072C331.708 239.072 323.263 227.054 320.015 219.893C316.766 212.731 311.879 202.353 311.879 202.353L311.229 231.277L302.134 206.529C302.134 206.529 306.357 236.752 305.058 241.624C303.758 246.497 302.784 249.095 301.809 249.435C300.835 249.776 297.262 236.752 291.091 227.982C284.919 219.212 280.031 216.923 280.031 216.923C280.031 216.923 288.477 232.854 289.451 240.65C290.425 248.445 287.904 250.735 285.878 251.059C283.852 251.384 268.663 250.085 258.253 251.384C251.348 252.386 244.594 254.241 238.146 256.906C238.146 256.906 265.461 253.983 270.333 256.906L274.417 259.35C273.643 259.427 272.174 260.355 269.359 263.99C264.146 270.811 257.975 281.221 259.274 286.743C260.573 292.265 261.873 296.162 260.821 296.812C259.769 297.462 251.68 310.021 251.68 310.021L267.936 309.047L261.424 313.269L270.534 311.645C270.534 311.645 269.56 312.62 271.834 315.218C274.107 317.817 281.903 322.689 281.903 322.689L286.126 324.653L271.184 325.303C271.184 325.303 274.757 328.226 282.553 329.201C290.348 330.175 291.338 330.825 292.313 330.825C292.993 330.825 292.715 338.125 292.498 342.518H456.174L457.798 311.32C457.798 311.32 459.422 282.721 462.686 272.961C465.949 263.201 473.729 238.16 473.405 224.177Z" fill="#263238" stroke="#263238" stroke-linecap="round" stroke-linejoin="round"/>
<path d="M324.5 238.717L336.271 252.173C336.271 252.173 347.639 256.813 351.831 256.813C356.023 256.813 361.112 258.917 361.514 264.81C361.916 270.703 360.663 278.731 361.514 283.371C362.364 288.011 366.556 296.41 365.288 298.931C364.417 300.647 362.975 302.006 361.211 302.773C359.447 303.541 357.47 303.67 355.621 303.138C350.578 301.87 347.639 303.973 345.954 294.724C344.268 285.474 343.432 282.536 343.432 282.536C343.432 282.536 336.704 289.682 333.332 291.368C329.96 293.053 325.769 290.517 319.875 293.889C314.175 297.414 309.065 301.814 304.733 306.928C300.093 311.97 292.962 314.074 290.441 316.208C287.804 318.937 285.413 321.892 283.295 325.04C283.295 325.04 271.524 320.4 274.463 315.357C277.402 310.315 274.463 310.717 276.567 307.794C278.67 304.871 271.927 286.341 273.628 285.923C275.329 285.505 282.027 285.505 282.027 278.777C282.027 272.049 277.387 263.217 277.387 261.531C277.387 259.845 286.218 242.97 288.74 249.76C291.261 256.55 298.02 261.964 301.779 261.113C305.537 260.263 306.419 251.029 305.986 244.3C305.553 237.572 313.132 235.02 315.653 234.2C318.174 233.38 324.5 238.717 324.5 238.717Z" fill="#CFCFCF" stroke="#263238" stroke-linecap="round" stroke-linejoin="round"/>
<path d="M293.596 291.46C293.596 291.46 299.505 295.977 303.341 287.284C307.177 278.592 312.389 273.008 320.045 270.579C326.029 268.436 331.845 265.851 337.446 262.846C335.498 266.431 333.039 269.713 330.146 272.59C325.969 276.411 320.741 280.247 320.401 282.335C320.061 284.423 320.401 283.371 328.754 282.335L337.106 281.283C337.106 281.283 334.322 286.155 331.538 286.851C328.754 287.547 317.957 289.295 313.425 292.775C308.893 296.255 306.295 300.339 301.949 304.608C297.602 308.877 282.46 315.744 282.46 305.304C282.46 294.863 284.548 291.785 293.596 291.46Z" fill="#263238" stroke="#263238" stroke-linecap="round" stroke-linejoin="round"/>
<path d="M343.432 282.458C343.432 282.458 338.792 268.537 345.953 264.377" stroke="#263238" stroke-linecap="round" stroke-linejoin="round"/>
<path d="M362.349 287.918C362.349 287.918 358.992 287.918 359.41 290.439C359.828 292.96 361.931 299.271 361.931 299.271" stroke="#263238" stroke-linecap="round" stroke-linejoin="round"/>
<path d="M319.04 220.635C319.04 220.635 303.898 219.382 301.376 224.425C298.855 229.467 300.541 235.778 303.062 239.985C305.584 244.192 306.001 249.652 307.27 255.545C308.538 261.438 308.94 267.733 311.044 268.151C314.512 269.068 318.176 268.923 321.561 267.733C327.021 266.047 328.29 263.093 328.29 259.334C328.29 255.576 327.021 247.966 327.021 245.027C327.021 242.088 325.351 234.942 324.918 229.049C324.719 227.267 324.077 225.564 323.05 224.094C322.023 222.624 320.645 221.435 319.04 220.635Z" fill="#CFCFCF" stroke="#263238" stroke-linecap="round" stroke-linejoin="round"/>
<path d="M324.918 250.503C322.187 249.131 319.043 248.827 316.101 249.652C310.626 250.92 310.626 253.859 310.626 258.066V262.273" stroke="#263238" stroke-linecap="round" stroke-linejoin="round"/>
<path d="M321.561 267.733L319.875 260.587" stroke="#263238" stroke-linecap="round" stroke-linejoin="round"/>
<path d="M314.833 266.898L314.415 263.959" stroke="#263238" stroke-linecap="round" stroke-linejoin="round"/>
<path d="M291.292 256.38C291.292 256.38 291.709 255.545 288.755 249.652C288.113 248.262 287.123 247.062 285.881 246.167C284.64 245.273 283.188 244.713 281.667 244.544C280.146 244.374 278.606 244.6 277.198 245.2C275.79 245.799 274.56 246.752 273.628 247.966C268.988 253.441 268.152 255.127 271.107 258.901C274.061 262.675 279.088 265.63 279.923 268.584C280.758 271.538 284.563 279.504 288.755 282.041C292.947 284.577 296.334 284.144 299.273 280.355C302.212 276.565 300.959 272.776 299.273 266.434C297.587 260.092 291.292 256.38 291.292 256.38Z" fill="#CFCFCF" stroke="#263238" stroke-linecap="round" stroke-linejoin="round"/>
<path d="M289.606 278.669C289.606 278.669 286.234 274.462 287.085 271.94C287.935 269.419 293.38 266.047 295.484 267.733" stroke="#263238" stroke-linecap="round" stroke-linejoin="round"/>
<path d="M270.241 283.293C270.241 283.293 262.259 281.19 260.96 290.857C259.661 300.524 262.228 304.313 265.167 305.582C268.106 306.85 273.999 305.582 276.52 307.685C279.041 309.789 283.249 311.475 290.441 312.728C297.633 313.98 297.169 309.789 298.855 303.447C300.541 297.106 295.483 296.719 292.962 295.466C290.459 294.53 288.171 293.099 286.234 291.259C283.713 288.769 275.731 282.876 270.241 283.293Z" fill="#CFCFCF" stroke="#263238" stroke-linecap="round" stroke-linejoin="round"/>
<path d="M287.085 308.103C286.153 306.137 285.895 303.918 286.35 301.791C286.806 299.663 287.95 297.745 289.606 296.332" stroke="#263238" stroke-linecap="round" stroke-linejoin="round"/>
<path d="M297.587 308.954L291.709 309.371" stroke="#263238" stroke-linecap="round" stroke-linejoin="round"/>
<path d="M270.674 310.624C270.674 310.624 265.631 311.475 266.482 317.352C267.333 323.23 271.122 326.184 272.777 328.705C274.432 331.227 282.058 337.12 285.399 337.986C288.74 338.852 292.127 337.568 291.709 331.691C291.292 325.813 287.069 322.859 285.816 320.337C284.563 317.816 282.46 316.13 280.774 313.609C279.088 311.088 275.732 307.268 270.674 310.624Z" fill="#CFCFCF" stroke="#263238" stroke-linecap="round" stroke-linejoin="round"/>
<path d="M289.606 327.452C288.992 326.383 288.034 325.552 286.889 325.094C285.743 324.637 284.477 324.579 283.295 324.931C279.088 326.184 276.567 329.123 277.835 331.66C279.103 334.196 285.399 337.955 285.399 337.955" stroke="#263238" stroke-linecap="round" stroke-linejoin="round"/>
<path d="M286.837 173.475C291.011 176.327 294.531 180.032 297.166 184.347C299.8 188.661 301.489 193.486 302.119 198.501C302.119 198.501 303.093 175.455 286.837 173.475Z" fill="#263238" stroke="#263238" stroke-linecap="round" stroke-linejoin="round"/>
<path d="M287.162 187.133C287.162 187.133 293.349 193.629 294.973 196.877C296.597 200.126 294.648 188.757 287.162 187.133Z" fill="#263238" stroke="#263238" stroke-linecap="round" stroke-linejoin="round"/>
<path d="M357.755 188.478C357.755 188.478 356.92 179.198 351.058 185.539C345.196 191.881 346.881 204.379 348.134 210.658C349.387 216.938 355.667 222.785 355.667 222.785C355.667 222.785 357.337 235.344 358.59 241.609C359.843 247.873 368.938 266.248 371.861 271.275C374.785 276.302 384.622 288.475 391.675 289.712C401.048 291.367 410.066 286.387 412.989 283.046C415.912 279.705 423.816 267.578 430.142 260.448C436.468 253.317 442.702 237.85 442.702 237.85C442.702 237.85 453.993 215.252 453.529 209.39C453.501 207.814 453.153 206.259 452.507 204.821C451.861 203.383 450.93 202.09 449.77 201.022C449.77 201.022 455.215 182.616 455.215 169.221C455.215 155.827 443.073 138.673 432.199 133.646C421.326 128.619 397.877 124.01 383.23 134.064C368.582 144.118 361.9 157.915 360.632 164.999C359.364 172.083 357.755 188.478 357.755 188.478Z" fill="#CFCFCF" stroke="#263238" stroke-linecap="round" stroke-linejoin="round"/>
<path d="M449.399 204.843C449.853 208.348 449.569 211.91 448.564 215.299C446.878 221.161 442.702 223.667 442.702 230.766C442.702 237.866 438.062 247.92 438.062 247.92" stroke="#263238" stroke-linecap="round" stroke-linejoin="round"/>
<path d="M415.912 212.329L441.449 211.494C441.983 213.935 441.832 216.476 441.013 218.837C440.194 221.198 438.739 223.287 436.808 224.873C430.142 230.318 415.077 224.038 415.912 212.329Z" fill="#263238" stroke="#263238" stroke-linecap="round" stroke-linejoin="round"/>
<path d="M406.122 211.184L376.966 201.022C376.966 201.022 374.244 214.525 382.689 219.583C395.078 227.116 405.287 213.273 406.122 211.184Z" fill="#263238" stroke="#263238" stroke-linecap="round" stroke-linejoin="round"/>
<path d="M404.807 227.441C404.807 227.441 396.037 235.886 399.61 237.185C400.77 237.515 401.99 237.57 403.175 237.344C404.359 237.119 405.474 236.619 406.431 235.886C406.431 235.886 410.004 242.382 412.927 240.433C415.851 238.485 414.242 229.715 412.278 227.116C411.836 226.527 411.257 226.055 410.591 225.74C409.925 225.425 409.193 225.277 408.457 225.309C407.721 225.341 407.004 225.552 406.368 225.924C405.732 226.295 405.196 226.816 404.807 227.441Z" fill="#263238" stroke="#263238" stroke-linecap="round" stroke-linejoin="round"/>
<path d="M416.206 267.733C414.383 270.722 411.935 273.281 409.03 275.235C407.202 276.564 405.273 277.749 403.26 278.777C399.362 280.741 388.303 275.869 386.03 273.58C384.502 271.455 383.399 269.055 382.781 266.511C381.544 262.428 380.771 257.618 381.482 254.725C381.999 253.131 382.827 251.656 383.918 250.384C385.01 249.112 386.342 248.069 387.839 247.316C390.432 245.796 393.503 245.31 396.439 245.955L412.324 249.93C413.44 250.214 414.449 250.817 415.227 251.666C416.004 252.515 416.517 253.573 416.701 254.71C416.701 254.988 416.794 255.297 416.841 255.622C417.351 259.52 417.738 264.872 416.206 267.733Z" fill="#263238" stroke="#263238" stroke-linecap="round" stroke-linejoin="round"/>
<path d="M403.26 278.777C405.294 277.751 407.243 276.567 409.091 275.235C411.31 273.68 413.294 271.816 414.984 269.698C414.907 265.862 413.128 264.856 411.055 268.383C408.782 272.281 406.508 272.93 402.935 272.93C399.362 272.93 391.566 271.306 389.293 267.733C387.019 264.16 388.643 260.912 385.704 259.288C382.765 257.664 382.456 261.887 382.456 261.887C382.456 261.887 382.317 262.737 382.116 264.037C382.317 264.872 382.533 265.707 382.781 266.511C383.398 269.055 384.501 271.455 386.029 273.58C388.241 275.869 399.3 280.741 403.26 278.777Z" fill="white" stroke="#263238" stroke-linecap="round" stroke-linejoin="round"/>
<path d="M416.995 257.262C416.917 256.69 416.855 256.148 416.778 255.622C416.701 255.096 416.685 254.988 416.639 254.71C416.454 253.573 415.942 252.515 415.164 251.666C414.386 250.817 413.378 250.214 412.262 249.93L396.377 245.955C393.441 245.31 390.37 245.796 387.777 247.316C386.919 247.78 386.111 248.329 385.364 248.956C386.911 250.394 391.303 253.72 400.274 255.715C405.751 256.994 411.377 257.515 416.995 257.262Z" fill="white" stroke="#263238" stroke-linecap="round" stroke-linejoin="round"/>
<path d="M400.924 220.31C400.924 220.31 397.676 224.208 389.231 226.822C380.786 229.436 374.924 226.172 373.949 222.259" stroke="#263238" stroke-linecap="round" stroke-linejoin="round"/>
<path d="M417.181 223.527C417.181 223.527 420.274 231.926 431.472 231.261" stroke="#263238" stroke-linecap="round" stroke-linejoin="round"/>
<path d="M409.447 209.56C410.421 209.236 410.421 208.911 410.421 205.338C410.421 201.765 404.575 198.501 401.976 196.552" stroke="#263238" stroke-linecap="round" stroke-linejoin="round"/>
<path d="M412.942 208.911C413.106 207.323 413.798 205.836 414.907 204.688C416.855 202.414 429.198 200.048 430.173 200.048" stroke="#263238" stroke-linecap="round" stroke-linejoin="round"/>
<path d="M395.403 230.364C392.378 232.306 389.225 234.042 385.968 235.561C380.446 238.159 374.274 237.108 374.274 249.203" stroke="#263238" stroke-linecap="round" stroke-linejoin="round"/>
<path d="M417.181 235.886C418.5 239.237 420.246 242.403 422.378 245.305C425.301 248.878 424.327 254.741 422.378 261.237" stroke="#263238" stroke-linecap="round" stroke-linejoin="round"/>
<path d="M440.583 234.231C440.583 234.231 439.608 236.829 434.396 237.804C429.183 238.778 424.327 238.453 424.651 243.326" stroke="#263238" stroke-linecap="round" stroke-linejoin="round"/>
<path d="M366.478 218.98C366.478 218.98 367.128 225.167 371.351 227.765C375.573 230.364 378.821 231.338 376.872 234.587" stroke="#263238" stroke-linecap="round" stroke-linejoin="round"/>
<path d="M369.727 197.202C369.158 196.333 368.855 195.317 368.855 194.279C368.855 193.24 369.158 192.224 369.727 191.355C371.675 188.107 373.3 182.261 372.65 173.475" stroke="#263238" stroke-linecap="round" stroke-linejoin="round"/>
<path d="M355.651 216.118C355.651 216.118 359.565 207.008 357.6 201.486C355.636 195.964 351.614 187.225 351.614 187.225C351.614 187.225 349.495 193.613 350.887 196.691C352.28 199.769 353.764 203.141 353.764 203.141C353.764 203.141 348.428 203.977 349.836 207.905C351.243 211.834 351.522 207.627 352.929 207.348C354.337 207.07 355.651 216.118 355.651 216.118Z" fill="#263238" stroke="#263238" stroke-linecap="round" stroke-linejoin="round"/>
<path d="M374.274 147.799C374.274 147.799 381.42 155.285 397.352 158.534" stroke="#263238" stroke-linecap="round" stroke-linejoin="round"/>
<path d="M418.805 160.158C428.948 162.604 439.502 162.826 449.739 160.807" stroke="#263238" stroke-linecap="round" stroke-linejoin="round"/>
<path d="M381.095 147.149L375.898 154.961" stroke="#263238" stroke-linecap="round" stroke-linejoin="round"/>
<path d="M392.155 151.388L388.907 159.508" stroke="#263238" stroke-linecap="round" stroke-linejoin="round"/>
<path d="M422.378 155.935L421.404 165.03" stroke="#263238" stroke-linecap="round" stroke-linejoin="round"/>
<path d="M437.319 156.585L436.994 169.577" stroke="#263238" stroke-linecap="round" stroke-linejoin="round"/>
<path d="M391.18 181.642C391.18 181.642 399.625 185.539 405.796 188.138C411.968 190.737 423.677 190.087 430.823 189.437" stroke="#263238" stroke-linecap="round" stroke-linejoin="round"/>
<path d="M435.37 182.585C435.37 182.585 419.13 182.91 415.263 182.585" stroke="#263238" stroke-linecap="round" stroke-linejoin="round"/>
<path d="M390.53 172.176L404.497 177.388" stroke="#263238" stroke-linecap="round" stroke-linejoin="round"/>
<path d="M394.753 212.314C394.756 213.055 394.539 213.78 394.13 214.398C393.72 215.015 393.137 215.497 392.453 215.783C391.77 216.069 391.016 216.145 390.289 216.002C389.562 215.86 388.894 215.504 388.369 214.981C387.844 214.459 387.486 213.792 387.34 213.065C387.194 212.339 387.268 211.585 387.55 210.9C387.833 210.216 388.313 209.63 388.929 209.218C389.545 208.806 390.269 208.586 391.01 208.586C392 208.586 392.95 208.978 393.651 209.677C394.353 210.376 394.749 211.324 394.753 212.314Z" fill="#BBD147" stroke="#263238" stroke-linecap="round" stroke-linejoin="round"/>
<path d="M427.899 221.099C429.967 221.099 431.642 219.423 431.642 217.356C431.642 215.289 429.967 213.613 427.899 213.613C425.832 213.613 424.156 215.289 424.156 217.356C424.156 219.423 425.832 221.099 427.899 221.099Z" fill="#BBD147" stroke="#263238" stroke-linecap="round" stroke-linejoin="round"/>
<path d="M382.054 276.782C382.054 276.782 385.627 281.731 394.165 282.829C399.142 283.522 404.209 283.147 409.03 281.731C409.03 281.731 401.868 288.026 394.165 286.804C386.463 285.582 382.054 276.782 382.054 276.782Z" fill="#263238" stroke="#263238" stroke-linecap="round" stroke-linejoin="round"/>
<path d="M389.34 245.692C388.721 245.174 388.237 244.514 387.93 243.767C387.622 243.021 387.501 242.211 387.576 241.408" stroke="#263238" stroke-linecap="round" stroke-linejoin="round"/>
<path d="M404.018 247.471L404.265 243.682" stroke="#263238" stroke-linecap="round" stroke-linejoin="round"/>
<path d="M416.129 251.508C417.103 250.806 417.954 249.949 418.65 248.971" stroke="#263238" stroke-linecap="round" stroke-linejoin="round"/>
<path d="M382.719 266.511C382.719 266.511 379.796 268.661 379.796 270.177" stroke="#263238" stroke-linecap="round" stroke-linejoin="round"/>
<path d="M390.143 276.472L389.385 278.993" stroke="#263238" stroke-linecap="round" stroke-linejoin="round"/>
<path d="M409.029 275.234L408.813 279.751" stroke="#263238" stroke-linecap="round" stroke-linejoin="round"/>
<path d="M314.586 116.416H219.523C218.703 116.416 217.916 116.09 217.336 115.51C216.756 114.93 216.43 114.143 216.43 113.323C216.43 112.502 216.756 111.715 217.336 111.135C217.916 110.555 218.703 110.229 219.523 110.229H314.586C315.406 110.229 316.193 110.555 316.773 111.135C317.353 111.715 317.679 112.502 317.679 113.323C317.679 113.729 317.599 114.131 317.444 114.506C317.288 114.882 317.06 115.223 316.773 115.51C316.486 115.797 316.145 116.025 315.769 116.181C315.394 116.336 314.992 116.416 314.586 116.416Z" fill="#6E6E6E" stroke="#263238" stroke-linecap="round" stroke-linejoin="round"/>
<path d="M249.932 110.121H219.523C218.688 110.121 217.888 110.452 217.297 111.043C216.707 111.633 216.375 112.433 216.375 113.268C216.375 114.103 216.707 114.904 217.297 115.494C217.888 116.084 218.688 116.416 219.523 116.416H249.932V110.121Z" fill="#BBD147" stroke="#263238" stroke-linecap="round" stroke-linejoin="round"/>
<path d="M676.46 380.32H68.3605V622.183H676.46V380.32Z" fill="#CFCFCF" stroke="#263238" stroke-linecap="round" stroke-linejoin="round"/>
<path d="M676.46 380.32H68.3605V390.095H676.46V380.32Z" fill="#263238" stroke="#263238" stroke-linecap="round" stroke-linejoin="round"/>
<path d="M465.345 400.196H279.459V608.077H465.345V400.196Z" fill="#CFCFCF" stroke="#263238" stroke-linecap="round" stroke-linejoin="round"/>
<path d="M457.627 408.827H287.177V599.431H457.627V408.827Z" fill="#CFCFCF" stroke="#263238" stroke-linecap="round" stroke-linejoin="round"/>
<path d="M372.402 409.043V600.019" stroke="#263238" stroke-linecap="round" stroke-linejoin="round"/>
<path d="M267.843 528.266H77.9964V607.737H267.843V528.266Z" fill="#A1A1A1" stroke="#263238" stroke-linecap="round" stroke-linejoin="round"/>
<path d="M267.843 395.71H77.9964V475.182H267.843V395.71Z" fill="#A1A1A1" stroke="#263238" stroke-linecap="round" stroke-linejoin="round"/>
<path d="M668.741 395.71H478.895V496.898H668.741V395.71Z" fill="#A1A1A1" stroke="#263238" stroke-linecap="round" stroke-linejoin="round"/>
<path d="M668.741 506.534H478.895V607.721H668.741V506.534Z" fill="#CFCFCF" stroke="#263238" stroke-linecap="round" stroke-linejoin="round"/>
<path d="M601.32 551.359H546.318V562.913H601.32V551.359Z" fill="#263238" stroke="#263238" stroke-linecap="round" stroke-linejoin="round"/>
<path d="M198.982 495.939H143.98V507.493H198.982V495.939Z" fill="#263238" stroke="#263238" stroke-linecap="round" stroke-linejoin="round"/>
<path d="M687.845 366.802H56.9762V382.764H687.845V366.802Z" fill="#CFCFCF" stroke="#263238" stroke-linecap="round" stroke-linejoin="round"/>
<path d="M648.185 465.963H494.424V496.914H648.185V465.963Z" fill="#263238" stroke="#263238" stroke-linecap="round" stroke-linejoin="round"/>
<path d="M640.948 486.519C640.948 485.405 609.224 484.508 570.107 484.508C530.99 484.508 499.267 485.405 499.267 486.519C499.267 487.633 530.99 488.545 570.107 488.545C609.224 488.545 640.948 487.633 640.948 486.519Z" fill="#CFCFCF" stroke="#263238" stroke-linecap="round" stroke-linejoin="round"/>
<path d="M95.6601 400.985H80.0689V474.672H95.6601V400.985Z" fill="#CFCFCF" stroke="#263238" stroke-linecap="round" stroke-linejoin="round"/>
<path d="M113.68 400.985H98.0888V474.672H113.68V400.985Z" fill="#CFCFCF" stroke="#263238" stroke-linecap="round" stroke-linejoin="round"/>
<path d="M266.498 400.985H250.907V474.672H266.498V400.985Z" fill="#CFCFCF" stroke="#263238" stroke-linecap="round" stroke-linejoin="round"/>
<path d="M250.04 400.985H234.449V474.672H250.04V400.985Z" fill="#CFCFCF" stroke="#263238" stroke-linecap="round" stroke-linejoin="round"/>
<path d="M233.583 400.985H217.992V474.672H233.583V400.985Z" fill="#CFCFCF" stroke="#263238" stroke-linecap="round" stroke-linejoin="round"/>
<path d="M217.126 400.985H201.534V474.672H217.126V400.985Z" fill="#CFCFCF" stroke="#263238" stroke-linecap="round" stroke-linejoin="round"/>
<path d="M200.668 400.985H185.077V474.672H200.668V400.985Z" fill="#CFCFCF" stroke="#263238" stroke-linecap="round" stroke-linejoin="round"/>
<path d="M130.054 400.271L115.058 404.535L135.208 475.413L150.204 471.149L130.054 400.271Z" fill="#CFCFCF" stroke="#263238" stroke-linecap="round" stroke-linejoin="round"/>
<path d="M200.854 682.46C200.854 682.46 235.331 629.608 241.641 608.371C247.952 587.135 242.987 556.927 241.069 537.794C239.151 518.661 248.586 470.279 248.586 470.279C248.586 470.279 239.986 436.807 244.766 433.93C249.545 431.053 266.42 429.924 273.257 427.62C280.093 425.315 284.161 425.903 290.271 428.965C293.391 430.423 296.342 432.218 299.072 434.317L294.865 440.813L278.794 444.263L289.126 498.197C289.126 498.197 320.494 506.24 322.026 508.916C323.557 511.592 322.211 522.837 318.932 532.241C315.653 541.645 317.215 548.126 311.477 550.028C305.738 551.931 302.289 553.122 301.717 551.374C301.145 549.626 293.875 579.494 288.709 588.867C285.152 595.734 282.212 602.902 279.923 610.289C279.923 610.289 271.06 697.943 272.391 700" fill="white"/>
<path d="M200.854 682.46C200.854 682.46 235.331 629.608 241.641 608.371C247.952 587.135 242.987 556.927 241.069 537.794C239.151 518.661 248.586 470.279 248.586 470.279C248.586 470.279 239.986 436.807 244.766 433.93C249.545 431.053 266.42 429.924 273.257 427.62C280.093 425.315 284.161 425.903 290.271 428.965C293.391 430.423 296.342 432.218 299.072 434.317L294.865 440.813L278.794 444.263L289.126 498.197C289.126 498.197 320.494 506.24 322.026 508.916C323.557 511.592 322.211 522.837 318.932 532.241C315.653 541.645 317.215 548.126 311.477 550.028C305.738 551.931 302.289 553.122 301.717 551.374C301.145 549.626 293.875 579.494 288.709 588.867C285.152 595.734 282.212 602.902 279.923 610.289C279.923 610.289 271.06 697.943 272.391 700" stroke="#263238" stroke-linecap="round" stroke-linejoin="round"/>
<path d="M278.222 452.754C278.222 452.754 264.301 448.346 262.29 446.413C262.468 450.025 263.634 453.518 265.662 456.513C269.034 461.431 268.508 471.532 268.508 471.532L288.461 509.349L300.588 553.818C301.191 551.993 301.593 551.018 301.701 551.374C302.274 553.091 305.723 551.946 311.461 550.028C317.2 548.11 315.668 541.614 318.916 532.241C320.517 527.555 321.641 522.721 322.273 517.81V509.674C322.197 509.413 322.099 509.16 321.979 508.916C320.432 506.24 289.08 498.197 289.08 498.197L281.068 456.111L278.222 452.754Z" fill="#263238" stroke="#263238" stroke-linecap="round" stroke-linejoin="round"/>
<path d="M299.876 529.271L305.753 517.067" stroke="#263238" stroke-linecap="round" stroke-linejoin="round"/>
<path d="M257.109 443.149C261.315 446.667 266.098 449.43 271.246 451.316" stroke="#263238" stroke-linecap="round" stroke-linejoin="round"/>
<path d="M583.439 636.166C583.439 636.166 520.936 580.483 519.76 578.241C518.585 575.998 490.651 505.374 485.809 493.448C480.968 481.523 472.693 479.017 468.795 473.789C464.898 468.561 456.421 445.948 454.241 435.384C452.06 424.819 454.38 416.111 434.133 415.848C413.886 415.585 423.646 413.234 416.562 414.302C409.478 415.369 406.601 422.437 406.601 422.437L426.508 419.963L430.328 421.509C434.148 423.056 434.396 428.47 434.396 428.47C434.396 428.47 437.938 465.298 438.588 472.505C439.237 479.713 443.475 510.772 443.475 510.772C443.475 510.772 418.279 501.971 416.175 500.919C414.072 499.867 407.003 508.776 404.776 516.51C402.549 524.244 408.442 528.884 413.948 536.169C419.454 543.454 429.152 543.779 429.152 543.779L471.316 588.727L521.647 684.331" fill="white"/>
<path d="M583.439 636.166C583.439 636.166 520.936 580.483 519.76 578.241C518.585 575.998 490.651 505.374 485.809 493.448C480.968 481.523 472.693 479.017 468.795 473.789C464.898 468.561 456.421 445.948 454.241 435.384C452.06 424.819 454.38 416.111 434.133 415.848C413.886 415.585 423.646 413.234 416.562 414.302C409.478 415.369 406.601 422.437 406.601 422.437L426.508 419.963L430.328 421.509C434.148 423.056 434.396 428.47 434.396 428.47C434.396 428.47 437.938 465.298 438.588 472.505C439.237 479.713 443.475 510.772 443.475 510.772C443.475 510.772 418.279 501.971 416.175 500.919C414.072 499.867 407.003 508.776 404.776 516.51C402.549 524.244 408.442 528.884 413.948 536.169C419.454 543.454 429.152 543.779 429.152 543.779L471.316 588.727L521.647 684.331" stroke="#263238" stroke-linecap="round" stroke-linejoin="round"/>
<path d="M442.857 479.032C440.564 473.617 438.823 467.984 437.66 462.219C438.093 466.86 438.449 470.634 438.619 472.474C439.222 479.032 442.78 505.389 443.414 510.06C444.744 509.24 445.842 508.699 445.842 508.699C447.257 505.474 448.004 501.996 448.038 498.475C448.116 492.381 446.878 487.199 442.857 479.032Z" fill="#263238" stroke="#263238" stroke-linecap="round" stroke-linejoin="round"/>
<path d="M441.821 538.103C442.346 535.767 438.835 517.516 438.449 515.041C438.232 513.664 440.599 511.839 442.702 510.493C438.418 508.947 418.078 501.847 416.207 500.919C414.335 499.991 407.034 508.777 404.807 516.51C402.58 524.244 408.473 528.884 413.979 536.169C419.486 543.454 429.184 543.779 429.184 543.779L431.071 545.79C436.67 542.356 441.604 539.093 441.821 538.103Z" fill="#263238" stroke="#263238" stroke-linecap="round" stroke-linejoin="round"/>
<path d="M433.762 425.686L441.929 498.058C442.12 499.776 441.621 501.5 440.542 502.852C439.464 504.203 437.893 505.071 436.175 505.265L286.45 522.109C284.73 522.301 283.004 521.803 281.65 520.724C280.296 519.646 279.425 518.075 279.227 516.356L271.091 443.984C270.994 443.13 271.067 442.266 271.305 441.441C271.543 440.616 271.941 439.846 272.477 439.175C273.013 438.504 273.676 437.945 274.428 437.531C275.18 437.116 276.007 436.855 276.861 436.76L426.569 419.932C428.285 419.745 430.006 420.246 431.354 421.324C432.701 422.402 433.567 423.971 433.762 425.686Z" fill="#BBD147" stroke="#263238" stroke-linecap="round" stroke-linejoin="round"/>
<path d="M312.316 450.734L295.424 452.634L297.404 470.233L314.296 468.333L312.316 450.734Z" fill="#263238" stroke="#263238" stroke-linecap="round" stroke-linejoin="round"/>
<path d="M316.193 485.209L299.301 487.11L301.281 504.709L318.173 502.808L316.193 485.209Z" fill="#263238" stroke="#263238" stroke-linecap="round" stroke-linejoin="round"/>
<path d="M297.41 470.239L279.811 472.219L281.711 489.111L299.31 487.131L297.41 470.239Z" fill="#263238" stroke="#263238" stroke-linecap="round" stroke-linejoin="round"/>
<path d="M331.886 466.346L314.287 468.327L316.187 485.219L333.787 483.239L331.886 466.346Z" fill="#263238" stroke="#263238" stroke-linecap="round" stroke-linejoin="round"/>
<path d="M399.424 483.92C399.167 481.64 398.241 479.487 396.76 477.733C395.28 475.98 393.313 474.704 391.108 474.069C388.903 473.433 386.56 473.466 384.373 474.163C382.187 474.86 380.256 476.189 378.826 477.984C377.395 479.778 376.529 481.956 376.336 484.243C376.144 486.529 376.634 488.822 377.744 490.83C378.855 492.838 380.536 494.472 382.575 495.524C384.614 496.577 386.92 497.001 389.2 496.743C392.255 496.397 395.049 494.852 396.966 492.448C398.883 490.043 399.767 486.976 399.424 483.92Z" fill="#263238" stroke="#263238" stroke-linecap="round" stroke-linejoin="round"/>
<path d="M429.26 437.596C429.001 435.317 428.073 433.166 426.592 431.415C425.111 429.664 423.145 428.391 420.941 427.757C418.737 427.123 416.394 427.156 414.209 427.853C412.024 428.55 410.095 429.879 408.665 431.672C407.235 433.465 406.368 435.641 406.175 437.926C405.981 440.212 406.469 442.503 407.578 444.511C408.686 446.519 410.365 448.153 412.401 449.207C414.438 450.261 416.742 450.688 419.021 450.434C422.081 450.088 424.878 448.542 426.798 446.134C428.718 443.727 429.604 440.656 429.26 437.596Z" fill="#263238" stroke="#263238" stroke-linecap="round" stroke-linejoin="round"/>
<path d="M414.319 460.55C414.06 458.271 413.132 456.12 411.651 454.369C410.171 452.617 408.204 451.344 406 450.71C403.796 450.076 401.453 450.11 399.268 450.807C397.083 451.503 395.154 452.832 393.724 454.625C392.294 456.418 391.427 458.595 391.234 460.88C391.04 463.165 391.529 465.457 392.637 467.464C393.745 469.472 395.424 471.107 397.46 472.161C399.497 473.215 401.801 473.642 404.08 473.388C405.596 473.218 407.063 472.752 408.399 472.015C409.734 471.278 410.911 470.285 411.862 469.092C412.813 467.9 413.52 466.531 413.941 465.066C414.363 463.6 414.491 462.065 414.319 460.55Z" fill="#263238" stroke="#263238" stroke-linecap="round" stroke-linejoin="round"/>
<path d="M364.939 469.835L348.047 471.736L348.881 479.144L365.773 477.243L364.939 469.835Z" fill="#263238" stroke="#263238" stroke-linecap="round" stroke-linejoin="round"/>
<path d="M314.756 432.492C321.376 441.277 336.565 446.412 353.424 444.448C370.284 442.484 384.034 434.224 388.551 424.201L314.756 432.492ZM359.735 500.053C344.268 501.786 331.646 508.823 326.093 517.64L396.485 509.736C389.092 502.358 375.14 498.321 359.735 500.053Z" fill="white" stroke="#263238" stroke-linecap="round" stroke-linejoin="round"/>
<path d="M273.535 523.13C273.535 523.13 269.328 497.315 267.039 490.463C264.75 483.611 261.424 477.997 262.646 474.656C263.868 471.315 283.543 465.375 283.543 465.375C283.543 465.375 300.835 451.455 303.124 453.868C305.413 456.28 307.068 463.968 306.991 467.216C306.914 470.464 303.217 475.197 299.257 477.393C294.851 480.257 290.602 483.355 286.528 486.674C286.528 486.674 291.168 509.411 297.061 523.548C302.954 537.685 305.228 564.722 303.48 574.389C301.732 584.056 273.535 611 273.535 611" fill="white"/>
<path d="M273.535 523.13C273.535 523.13 269.328 497.315 267.039 490.463C264.75 483.611 261.424 477.997 262.646 474.656C263.868 471.315 283.543 465.375 283.543 465.375C283.543 465.375 300.835 451.455 303.124 453.868C305.413 456.28 307.068 463.968 306.991 467.216C306.914 470.464 303.217 475.197 299.257 477.393C294.851 480.257 290.602 483.355 286.528 486.674C286.528 486.674 291.168 509.411 297.061 523.548C302.954 537.685 305.228 564.722 303.48 574.389C301.732 584.056 273.535 611 273.535 611" stroke="#263238" stroke-linecap="round" stroke-linejoin="round"/>
<path d="M455.663 515.737C455.663 515.737 428.797 489.891 424.203 482.683C419.609 475.475 416.995 479.079 412.942 477.378C408.89 475.676 392.68 473.403 385.859 469.984C379.038 466.566 372.882 476.558 377.971 482.559C382.877 488.14 388.928 492.598 395.712 495.629C402.173 498.606 408.412 502.044 414.381 505.915C414.381 505.915 422.362 528.59 429.183 543.795C436.004 558.999 448.842 581.798 459.066 584.938C465.079 586.809 471.25 588.124 477.503 588.867" fill="white"/>
<path d="M455.663 515.737C455.663 515.737 428.797 489.891 424.203 482.683C419.609 475.475 416.995 479.079 412.942 477.378C408.89 475.676 392.68 473.403 385.859 469.984C379.038 466.566 372.882 476.558 377.971 482.559C382.877 488.14 388.928 492.598 395.712 495.629C402.173 498.606 408.412 502.044 414.381 505.915C414.381 505.915 422.362 528.59 429.183 543.795C436.004 558.999 448.842 581.798 459.066 584.938C465.079 586.809 471.25 588.124 477.503 588.867" stroke="#263238" stroke-linecap="round" stroke-linejoin="round"/>
<path d="M417.073 479.435C417.073 479.435 411.907 483.317 410.081 488.236" stroke="#263238" stroke-linecap="round" stroke-linejoin="round"/>
</svg>
