<svg width="197" height="41" viewBox="0 0 197 41" fill="none" xmlns="http://www.w3.org/2000/svg">
<path d="M144.058 31.09C142.942 31.09 142.084 30.826 141.484 30.298C140.884 29.77 140.47 29.002 140.242 27.994C140.014 26.986 139.9 25.768 139.9 24.34C139.9 22.888 140.026 21.664 140.278 20.668C140.542 19.66 141.016 18.898 141.7 18.382C142.396 17.854 143.386 17.59 144.67 17.59C145.51 17.59 146.29 17.644 147.01 17.752C147.73 17.848 148.42 17.974 149.08 18.13V19.84C148.696 19.792 148.132 19.738 147.388 19.678C146.656 19.618 145.876 19.588 145.048 19.588C144.256 19.588 143.65 19.744 143.23 20.056C142.81 20.356 142.522 20.854 142.366 21.55C142.21 22.246 142.132 23.182 142.132 24.358C142.132 25.594 142.21 26.554 142.366 27.238C142.522 27.91 142.786 28.378 143.158 28.642C143.542 28.906 144.07 29.038 144.742 29.038C145.27 29.038 145.78 28.99 146.272 28.894C146.776 28.786 147.196 28.672 147.532 28.552V25.492H144.85V23.764C145.21 23.716 145.672 23.674 146.236 23.638C146.8 23.602 147.352 23.584 147.892 23.584C148.252 23.584 148.576 23.59 148.864 23.602C149.164 23.614 149.434 23.626 149.674 23.638V31H148L147.694 30.082C147.322 30.298 146.812 30.52 146.164 30.748C145.516 30.976 144.814 31.09 144.058 31.09ZM154.032 31.108C153.312 31.108 152.724 30.892 152.268 30.46C151.812 30.028 151.584 29.434 151.584 28.678V27.868C151.584 27.124 151.836 26.518 152.34 26.05C152.856 25.582 153.642 25.348 154.698 25.348H157.452V24.502C157.452 24.166 157.392 23.884 157.272 23.656C157.164 23.428 156.948 23.26 156.624 23.152C156.3 23.032 155.826 22.972 155.202 22.972H152.286V21.676C152.742 21.556 153.264 21.454 153.852 21.37C154.452 21.274 155.166 21.226 155.994 21.226C157.194 21.214 158.106 21.442 158.73 21.91C159.366 22.366 159.684 23.182 159.684 24.358V31H157.938L157.56 29.956C157.464 30.04 157.236 30.178 156.876 30.37C156.528 30.55 156.102 30.718 155.598 30.874C155.094 31.03 154.572 31.108 154.032 31.108ZM155.112 29.542C155.376 29.542 155.682 29.5 156.03 29.416C156.39 29.32 156.708 29.224 156.984 29.128C157.26 29.02 157.416 28.954 157.452 28.93V26.41L155.364 26.518C154.812 26.566 154.41 26.71 154.158 26.95C153.918 27.19 153.798 27.508 153.798 27.904V28.3C153.798 28.756 153.93 29.074 154.194 29.254C154.47 29.434 154.776 29.53 155.112 29.542ZM161.896 31V21.352H163.714L164.128 22.36C164.572 22.048 165.058 21.778 165.586 21.55C166.126 21.31 166.762 21.19 167.494 21.19C168.094 21.19 168.598 21.322 169.006 21.586C169.414 21.85 169.726 22.18 169.942 22.576C170.218 22.372 170.554 22.162 170.95 21.946C171.346 21.73 171.76 21.55 172.192 21.406C172.636 21.262 173.074 21.19 173.506 21.19C174.25 21.19 174.844 21.34 175.288 21.64C175.732 21.928 176.05 22.336 176.242 22.864C176.446 23.38 176.548 23.98 176.548 24.664V31H174.316V24.844C174.316 24.328 174.172 23.926 173.884 23.638C173.596 23.35 173.206 23.206 172.714 23.206C172.282 23.206 171.844 23.29 171.4 23.458C170.968 23.626 170.572 23.83 170.212 24.07C170.296 24.346 170.338 24.622 170.338 24.898V31H168.106V24.844C168.106 24.328 167.962 23.926 167.674 23.638C167.386 23.35 166.996 23.206 166.504 23.206C166.036 23.206 165.616 23.278 165.244 23.422C164.872 23.566 164.5 23.758 164.128 23.998V31H161.896ZM182.695 31.09C181.651 31.09 180.817 30.946 180.193 30.658C179.581 30.37 179.137 29.872 178.861 29.164C178.597 28.444 178.465 27.448 178.465 26.176C178.465 24.88 178.591 23.872 178.843 23.152C179.107 22.432 179.545 21.934 180.157 21.658C180.769 21.37 181.597 21.226 182.641 21.226C183.553 21.226 184.291 21.322 184.855 21.514C185.419 21.694 185.827 22.024 186.079 22.504C186.343 22.984 186.475 23.65 186.475 24.502C186.475 25.438 186.205 26.086 185.665 26.446C185.125 26.806 184.399 26.986 183.487 26.986H180.661C180.685 27.586 180.763 28.066 180.895 28.426C181.039 28.774 181.291 29.026 181.651 29.182C182.023 29.338 182.563 29.416 183.271 29.416H186.187V30.73C185.695 30.826 185.173 30.91 184.621 30.982C184.081 31.054 183.439 31.09 182.695 31.09ZM180.643 25.636H183.271C183.691 25.636 183.997 25.558 184.189 25.402C184.393 25.234 184.495 24.934 184.495 24.502C184.495 23.878 184.351 23.446 184.063 23.206C183.787 22.966 183.313 22.846 182.641 22.846C182.137 22.846 181.735 22.924 181.435 23.08C181.147 23.236 180.943 23.518 180.823 23.926C180.703 24.334 180.643 24.904 180.643 25.636ZM191.912 31.108C191.54 31.108 191.108 31.09 190.616 31.054C190.136 31.03 189.674 30.994 189.23 30.946C188.786 30.886 188.438 30.814 188.186 30.73V29.416H192.344C192.788 29.416 193.13 29.356 193.37 29.236C193.622 29.116 193.748 28.84 193.748 28.408V28.066C193.748 27.766 193.646 27.532 193.442 27.364C193.238 27.184 192.896 27.094 192.416 27.094H190.958C190.394 27.094 189.89 27.016 189.446 26.86C189.014 26.704 188.672 26.44 188.42 26.068C188.168 25.696 188.042 25.192 188.042 24.556V24.016C188.042 23.104 188.312 22.42 188.852 21.964C189.404 21.496 190.37 21.262 191.75 21.262C192.122 21.262 192.53 21.28 192.974 21.316C193.43 21.352 193.862 21.4 194.27 21.46C194.678 21.52 195.002 21.58 195.242 21.64V22.954H191.318C190.874 22.954 190.532 23.032 190.292 23.188C190.064 23.332 189.95 23.608 189.95 24.016V24.358C189.95 24.754 190.07 25.012 190.31 25.132C190.562 25.24 190.916 25.294 191.372 25.294H192.866C193.814 25.294 194.516 25.516 194.972 25.96C195.428 26.392 195.656 26.998 195.656 27.778V28.57C195.656 29.542 195.326 30.208 194.666 30.568C194.006 30.928 193.088 31.108 191.912 31.108Z" fill="white"/>
<path fill-rule="evenodd" clip-rule="evenodd" d="M89.5851 16.9791H91.5486V19.8577H94.8629V21.696H91.5486V26.3466C91.5486 27.2173 91.7628 27.8538 92.1899 28.2561C92.6179 28.6587 93.3005 28.8598 94.2376 28.8598H94.8629V30.7201H94.2152C92.6681 30.7201 91.5099 30.3841 90.7397 29.7123C89.9699 29.0404 89.5851 28.0289 89.5851 26.6784V16.9791Z" fill="#BBD147"/>
<path fill-rule="evenodd" clip-rule="evenodd" d="M116.04 21.718H115.192C113.816 21.718 112.719 22.045 111.9 22.6979C111.082 23.3511 110.673 24.2204 110.673 25.3057C110.673 26.3831 111.084 27.249 111.906 27.9019C112.728 28.5551 113.823 28.8821 115.192 28.8821H116.04V30.7201H115.058C113.101 30.7201 111.542 30.2237 110.377 29.2307C109.213 28.2378 108.631 26.9187 108.631 25.2725C108.631 24.3865 108.839 23.5597 109.256 22.7925C109.672 22.0241 110.264 21.3787 111.03 20.854C111.566 20.4998 112.135 20.245 112.737 20.0901C113.339 19.9352 114.113 19.8577 115.058 19.8577H116.04V21.718Z" fill="#BBD147"/>
<mask id="mask0_26_2" style="mask-type:alpha" maskUnits="userSpaceOnUse" x="117" y="14" width="10" height="17">
<path d="M117.392 14.8644H126.686V30.7201H117.392V14.8644Z" fill="white"/>
</mask>
<g mask="url(#mask0_26_2)">
<path fill-rule="evenodd" clip-rule="evenodd" d="M117.392 30.7201V14.8644H119.355V20.8986C119.809 20.4707 120.287 20.153 120.789 19.9463C121.291 19.74 121.825 19.6361 122.391 19.6361C123.751 19.6361 124.807 20.0834 125.559 20.9765C126.31 21.8692 126.686 23.1276 126.686 24.7522V30.7201H124.723V24.4423C124.723 23.5116 124.497 22.7958 124.047 22.2938C123.597 21.7917 122.955 21.5411 122.123 21.5411C121.305 21.5411 120.639 21.8439 120.126 22.4487C119.612 23.0539 119.355 23.855 119.355 24.8516V30.7201H117.392Z" fill="#BBD147"/>
</g>
<path fill-rule="evenodd" clip-rule="evenodd" d="M101.769 21.6478C103.349 21.6478 104.685 22.7257 105.127 24.2079H98.4111C98.8528 22.7257 100.189 21.6478 101.769 21.6478ZM101.769 19.8981C98.6945 19.8981 96.2021 22.3219 96.2021 25.3111C96.2021 28.3002 98.6945 30.7229 101.769 30.7229C104.061 30.7229 106.029 29.3762 106.882 27.453H104.577C103.935 28.3312 102.916 28.8999 101.769 28.8999C100.013 28.8999 98.5574 27.568 98.2982 25.8303H105.24H106.939H107.292H107.31C107.337 25.6105 107.336 25.5383 107.336 25.3111C107.336 22.3219 104.843 19.8981 101.769 19.8981Z" fill="#BBD147"/>
<path fill-rule="evenodd" clip-rule="evenodd" d="M48.1592 12.5297C46.9238 13.7367 46.297 15.552 46.297 17.9255V30.7328H50.3711V23.8394H57.1255V19.9504H50.3711V17.5534C50.3711 16.559 50.6075 15.8362 51.0936 15.3442C51.5759 14.8563 52.2775 14.6187 53.2377 14.6187H57.1255V10.7167H53.6645C51.2437 10.7167 49.3916 11.3271 48.1592 12.5297Z" fill="#FEFEFE"/>
<path fill-rule="evenodd" clip-rule="evenodd" d="M76.7781 12.5199C75.542 13.727 74.9155 15.5426 74.9155 17.9157V30.723H78.9896V23.8296H85.744V19.9407H78.9896V17.5437C78.9896 16.5493 79.2261 15.8268 79.7125 15.3344C80.1944 14.8469 80.8961 14.6089 81.8566 14.6089H85.744V10.7073H82.2826C79.8626 10.7073 78.0101 11.3173 76.7781 12.5199Z" fill="#FEFEFE"/>
<path fill-rule="evenodd" clip-rule="evenodd" d="M63.15 17.9984C63.15 16.9221 63.4107 16.0781 63.9258 15.4893C64.4181 14.9262 65.0848 14.6532 65.9648 14.6532C66.7637 14.6532 67.4159 14.9154 67.9596 15.4547C68.5026 15.9936 68.7667 16.645 68.7667 17.4464C68.7667 18.3124 68.4955 18.9816 67.9373 19.4933C67.3611 20.0211 66.5842 20.2788 65.5637 20.2788H63.15V17.9984ZM66.0166 10.7125C64.7574 10.7125 63.5969 11.0048 62.5668 11.5817C61.5336 12.1594 60.6897 12.991 60.0558 14.0551C59.6919 14.6699 59.4283 15.3709 59.273 16.1366C59.1229 16.8762 59.0499 17.855 59.0499 19.1287V30.6872H63.15V24.2314H65.8874C67.8926 24.2314 69.5842 23.5868 70.9145 22.3153C72.2527 21.0352 72.9323 19.4144 72.9323 17.4978C72.9323 15.6364 72.2489 14.0227 70.9026 12.7005C69.5581 11.3817 67.9145 10.7125 66.0166 10.7125Z" fill="#FEFEFE"/>
<mask id="mask1_26_2" style="mask-type:alpha" maskUnits="userSpaceOnUse" x="2" y="0" width="39" height="41">
<path d="M2.30371 0.372437H40.7106V40.424H2.30371V0.372437Z" fill="white"/>
</mask>
<g mask="url(#mask1_26_2)">
<path fill-rule="evenodd" clip-rule="evenodd" d="M22.703 19.4902L23.6889 11.313C23.9373 9.68546 24.7384 8.18828 25.9417 7.09593C27.2043 5.95255 28.8247 5.32314 30.5048 5.32314C30.5134 5.32314 30.5219 5.32389 30.5301 5.32389C34.0459 5.32165 37.4574 5.75218 40.7106 6.56148C40.3035 5.88738 39.8302 5.24567 39.292 4.64494C36.8611 1.92989 33.3558 0.372375 29.6769 0.372375C26.5585 0.372375 23.5514 1.49191 21.2096 3.52354C20.0707 4.51235 19.1295 5.67472 18.413 6.97787C17.721 8.23669 17.2543 9.5957 17.0275 11.0173L15.9575 19.5259L15.1992 25.5705L14.4048 32.1663C14.203 33.4792 13.5575 34.687 12.5866 35.5674C11.5691 36.4895 10.2615 36.9979 8.90622 36.9979C8.78853 36.9979 8.67084 36.9923 8.55464 36.9845C6.4273 36.9648 4.34018 36.7871 2.30371 36.4631C2.41879 36.605 2.53685 36.745 2.65976 36.8813C4.68245 39.1327 7.59786 40.4243 10.6596 40.4243C13.2536 40.4243 15.7549 39.4962 17.7031 37.8109C19.5612 36.2035 20.7973 33.9957 21.1824 31.5954L21.9433 25.566L22.703 19.4902Z" fill="#BBD147"/>
</g>
<path fill-rule="evenodd" clip-rule="evenodd" d="M40.449 7.50592C38.4531 7.00946 36.4129 6.66682 34.3518 6.47614C34.842 6.81319 35.293 7.21467 35.6911 7.67835C38.2073 10.6135 37.9332 15.1054 35.0781 17.6931C33.8729 18.7847 32.3269 19.4126 30.7251 19.4625H30.7247L23.7788 19.461L23.7643 19.5612L23.0187 25.5202L30.0819 25.5224C31.5422 25.4788 32.9694 25.2099 34.3258 24.6923C35.7291 24.1552 37.0181 23.3832 38.1581 22.394C40.7249 20.1664 42.2568 17.0883 42.472 13.7271C42.6057 11.6336 42.2147 9.58819 41.3573 7.73161L40.449 7.50592Z" fill="#FEFEFE"/>
<mask id="mask2_26_2" style="mask-type:alpha" maskUnits="userSpaceOnUse" x="0" y="19" width="15" height="17">
<path d="M0 19.4632H14.8928V35.7755H0V19.4632Z" fill="white"/>
</mask>
<g mask="url(#mask2_26_2)">
<path fill-rule="evenodd" clip-rule="evenodd" d="M2.48147 35.4079C3.4889 35.568 4.50975 35.6902 5.53543 35.7755C5.24568 35.5494 4.97417 35.295 4.72985 35.0101C2.69972 32.6429 2.92206 29.0195 5.22407 26.9328C6.1965 26.0527 7.45049 25.5816 8.74283 25.5413H14.1316L14.1465 25.4062L14.8928 19.4658L10.3298 19.4632C7.85681 19.5366 5.47025 20.4632 3.61069 22.0718C1.47515 23.919 0.200312 26.4717 0.0215436 29.2597C-0.11514 31.3871 0.401426 33.4571 1.48968 35.2496L2.48147 35.4079Z" fill="#FEFEFE"/>
</g>
<rect x="132" y="14" width="2" height="17" fill="white"/>
</svg>
